<svg width="1278" height="757" viewBox="0 0 1278 757" fill="none" xmlns="http://www.w3.org/2000/svg">
<foreignObject x="0" y="0" width="0" height="0"><div xmlns="http://www.w3.org/1999/xhtml" style="backdrop-filter:blur(18px);clip-path:url(#bgblur_0_1_161_clip_path);height:100%;width:100%"></div></foreignObject><path data-figma-bg-blur-radius="36" d="M0 0H1278V677.654C1278 677.654 1218.58 769.054 763.25 754.66C307.924 740.266 0 624.398 0 624.398V0Z" fill="#21A33C"/>
<mask id="mask0_1_161" style="mask-type:alpha" maskUnits="userSpaceOnUse" x="0" y="0" width="1278" height="757">
<foreignObject x="0" y="0" width="0" height="0"><div xmlns="http://www.w3.org/1999/xhtml" style="backdrop-filter:blur(18px);clip-path:url(#bgblur_1_1_161_clip_path);height:100%;width:100%"></div></foreignObject><path data-figma-bg-blur-radius="36" d="M0 0H1278V677.654C1278 677.654 1218.58 769.054 763.25 754.66C307.924 740.266 0 624.398 0 624.398V0Z" fill="#21A33C"/>
</mask>
<g mask="url(#mask0_1_161)">
<ellipse cx="1014.07" cy="546.744" rx="552.565" ry="459.47" fill="white" fill-opacity="0.07"/>
<ellipse cx="1086.61" cy="600.648" rx="497" ry="413.266" fill="white" fill-opacity="0.12"/>
<ellipse cx="1166.87" cy="669.954" rx="429.087" ry="356.795" fill="white" fill-opacity="0.16"/>
</g>
<defs>
<clipPath id="bgblur_0_1_161_clip_path" transform="translate(0 0)"><path d="M0 0H1278V677.654C1278 677.654 1218.58 769.054 763.25 754.66C307.924 740.266 0 624.398 0 624.398V0Z"/>
</clipPath><clipPath id="bgblur_1_1_161_clip_path" transform="translate(0 0)"><path d="M0 0H1278V677.654C1278 677.654 1218.58 769.054 763.25 754.66C307.924 740.266 0 624.398 0 624.398V0Z"/>
</clipPath></defs>
</svg>
