<svg width="182" height="50" viewBox="0 0 182 50" fill="none" xmlns="http://www.w3.org/2000/svg">
<g opacity="0.85">
<mask id="path-1-outside-1_25095_720" maskUnits="userSpaceOnUse" x="0" y="0" width="182" height="50" fill="black">
<rect fill="white" width="182" height="50"/>
<path d="M27.156 37.152C26.276 37.7973 25.044 38.34 23.46 38.78C21.9053 39.1907 19.8813 39.396 17.388 39.396C14.924 39.396 12.5773 39.1907 10.348 38.78C8.11867 38.3693 6.52 37.9147 5.552 37.416C4.584 36.9173 4.1 36.4333 4.1 35.964C4.1 34.3213 4.33467 32.62 4.804 30.86C5.27333 29.0707 5.83067 28.176 6.476 28.176C6.59333 28.176 7.81067 28.572 10.128 29.364C12.4453 30.156 14.1907 30.552 15.364 30.552C16.5373 30.552 17.3 30.4347 17.652 30.2C18.004 29.936 18.18 29.5693 18.18 29.1C18.18 28.6307 17.8573 28.22 17.212 27.868C16.5667 27.4867 15.76 27.164 14.792 26.9C13.824 26.6067 12.768 26.196 11.624 25.668C10.5093 25.14 9.468 24.5533 8.5 23.908C7.532 23.2627 6.72533 22.3533 6.08 21.18C5.43467 19.9773 5.112 18.6133 5.112 17.088C5.112 10.576 8.99867 7.32 16.772 7.32C19.676 7.32 22.184 7.51067 24.296 7.892C26.408 8.244 27.8893 8.65466 28.74 9.124C29.62 9.564 30.06 10.004 30.06 10.444C30.06 11.9693 29.6933 13.612 28.96 15.372C28.256 17.132 27.5667 18.012 26.892 18.012C26.7747 18.012 26.3933 17.88 25.748 17.616C23.812 16.7653 22.1987 16.34 20.908 16.34C19.6467 16.34 18.7813 16.4573 18.312 16.692C17.872 16.9267 17.652 17.2933 17.652 17.792C17.652 18.2613 17.9747 18.6573 18.62 18.98C19.2653 19.2733 20.0573 19.552 20.996 19.816C21.964 20.0507 23.0053 20.432 24.12 20.96C25.264 21.4587 26.32 22.06 27.288 22.764C28.256 23.4387 29.0627 24.4067 29.708 25.668C30.3533 26.9293 30.676 28.396 30.676 30.068C30.676 31.828 30.2213 33.4267 29.312 34.864C28.7547 35.744 28.036 36.5067 27.156 37.152ZM42.1731 39.396C38.8877 39.396 36.5851 38.5453 35.2651 36.844C33.9744 35.1427 33.3291 32.18 33.3291 27.956V15.988C33.3291 15.4013 34.1944 14.844 35.9251 14.316C37.6557 13.7587 39.4744 13.48 41.3811 13.48C43.9331 13.48 45.2091 14.14 45.2091 15.46V26.636C45.2091 28.8653 45.2971 30.4933 45.4731 31.52C45.6491 32.5173 46.0891 33.016 46.7931 33.016C47.7317 33.016 48.2011 32.62 48.2011 31.828V15.988C48.2011 15.372 49.1104 14.8 50.9291 14.272C52.7477 13.744 54.7277 13.48 56.8691 13.48C59.0104 13.48 60.0811 14.052 60.0811 15.196V37.856C60.0811 38.2667 59.1571 38.56 57.3091 38.736C55.4611 38.912 53.6424 39 51.8531 39C50.0637 39 49.1544 38.7653 49.1251 38.296L48.6851 35.436H48.3331C48.0691 36.492 47.5411 37.3573 46.7491 38.032C46.3384 38.384 45.7224 38.7067 44.9011 39C44.1091 39.264 43.1997 39.396 42.1731 39.396ZM89.6814 24.392V37.944C89.6814 38.2667 88.8454 38.5307 87.1734 38.736C85.5014 38.912 83.7707 39 81.9814 39C80.2214 39 79.0774 38.9267 78.5494 38.78C78.0507 38.604 77.8014 38.3253 77.8014 37.944V23.952C77.8014 22.632 77.7427 21.7667 77.6254 21.356C77.5374 20.9453 77.4494 20.5787 77.3614 20.256C77.156 19.6987 76.7894 19.42 76.2614 19.42C75.44 19.42 75.0294 19.816 75.0294 20.608V37.944C75.0294 38.2667 74.1934 38.5307 72.5214 38.736C70.8787 38.912 69.1627 39 67.3734 39C65.6134 39 64.4694 38.9267 63.9414 38.78C63.4134 38.604 63.1494 38.3253 63.1494 37.944V16.252C63.1494 15.636 63.9854 15.02 65.6574 14.404C67.3587 13.788 69.148 13.48 71.0254 13.48C72.9027 13.48 73.9587 14.0227 74.1934 15.108L74.5894 17.044H74.8974C75.748 15.3427 77.2147 14.1547 79.2974 13.48C80.148 13.216 81.0867 13.084 82.1134 13.084C85.076 13.084 87.0707 13.9787 88.0974 15.768C89.1534 17.528 89.6814 20.4027 89.6814 24.392ZM101.027 39.396C99.9415 39.396 98.9295 39.2347 97.9908 38.912C97.0522 38.5893 96.2748 38.1933 95.6588 37.724C95.0722 37.2547 94.5588 36.624 94.1188 35.832C93.6788 35.04 93.3415 34.292 93.1068 33.588C92.8722 32.8547 92.6962 31.96 92.5788 30.904C92.4028 29.3493 92.3148 27.5747 92.3148 25.58C92.3148 21.5027 93.0628 18.408 94.5588 16.296C96.0548 14.1547 98.1082 13.084 100.719 13.084C103.388 13.084 105.324 13.7147 106.527 14.976C106.791 15.2693 106.996 15.6213 107.143 16.032H107.495L106.967 12.996V7.496C106.967 6.85067 107.788 6.22 109.431 5.604C111.074 4.988 112.848 4.68 114.755 4.68C116.75 4.68 118.026 5.06133 118.583 5.824C118.788 6.11733 118.891 6.41067 118.891 6.704V37.944C118.891 38.2667 118.07 38.5307 116.427 38.736C114.814 38.912 113.244 39 111.719 39C110.223 39 109.255 38.956 108.815 38.868C108.404 38.7507 108.14 38.6333 108.023 38.516C107.935 38.3987 107.876 38.208 107.847 37.944L107.495 35.436H107.143C106.879 36.4627 106.351 37.328 105.559 38.032C104.562 38.9413 103.051 39.396 101.027 39.396ZM105.955 32.972C106.424 32.972 106.776 32.6787 107.011 32.092V20.344C107.011 20.0507 106.85 19.8307 106.527 19.684C106.234 19.508 105.97 19.42 105.735 19.42C104.738 19.42 104.239 21.708 104.239 26.284C104.239 28.7187 104.371 30.4493 104.635 31.476C104.928 32.4733 105.368 32.972 105.955 32.972ZM130.334 39.396C127.664 39.396 125.567 38.7653 124.042 37.504C123.426 36.976 122.883 36.1987 122.414 35.172C121.974 34.1453 121.754 32.9427 121.754 31.564C121.754 30.1853 122.076 28.9827 122.722 27.956C123.396 26.9293 124.203 26.1373 125.142 25.58C126.08 25.0227 127.18 24.568 128.442 24.216C130.348 23.7173 132.446 23.468 134.734 23.468H136.186C136.186 22.2653 135.775 21.4147 134.954 20.916C134.602 20.7107 134.059 20.608 133.326 20.608C132.622 20.608 131.756 20.7987 130.73 21.18C129.732 21.5613 128.896 21.9573 128.222 22.368C127.547 22.7493 127.092 22.94 126.858 22.94C126.33 22.94 125.611 22.2507 124.702 20.872C123.792 19.464 123.338 18.188 123.338 17.044C123.338 16.6627 123.88 16.164 124.966 15.548C126.051 14.932 127.576 14.3747 129.542 13.876C131.536 13.348 133.472 13.084 135.35 13.084C137.227 13.084 138.84 13.2453 140.19 13.568C141.568 13.8613 142.683 14.228 143.534 14.668C144.414 15.108 145.147 15.6947 145.734 16.428C146.35 17.1613 146.804 17.8213 147.098 18.408C147.42 18.9947 147.655 19.7573 147.802 20.696C148.007 21.7813 148.11 23.116 148.11 24.7V37.944C148.11 38.2667 147.318 38.5307 145.734 38.736C144.179 38.912 142.624 39 141.07 39C139.544 39 138.547 38.956 138.078 38.868C137.638 38.78 137.374 38.6773 137.286 38.56C137.198 38.4427 137.124 38.2373 137.066 37.944L136.714 35.436H136.362C135.628 38.076 133.619 39.396 130.334 39.396ZM136.23 32.092V26.944C135.467 26.944 134.851 27.2667 134.382 27.912C133.912 28.5573 133.678 29.2907 133.678 30.112C133.678 32.048 134.118 33.016 134.998 33.016C135.379 33.016 135.672 32.928 135.878 32.752C136.112 32.5467 136.23 32.3267 136.23 32.092ZM166.02 36.14V33.544H165.668C165.522 33.6907 165.302 33.8813 165.008 34.116C164.715 34.3507 164.026 34.6587 162.94 35.04C161.855 35.4213 160.638 35.612 159.288 35.612C157.968 35.612 156.795 35.4067 155.768 34.996C154.771 34.556 153.979 33.984 153.392 33.28C152.806 32.5467 152.351 31.5787 152.028 30.376C151.471 28.4693 151.192 25.7707 151.192 22.28V16.208C151.192 15.592 152.058 14.9907 153.788 14.404C155.519 13.788 157.338 13.48 159.244 13.48C161.796 13.48 163.072 14.14 163.072 15.46V21.004C163.072 26.8707 163.542 29.804 164.48 29.804C165.038 29.804 165.316 29.408 165.316 28.616V16.208C165.316 15.592 166.24 14.9907 168.088 14.404C169.936 13.788 171.916 13.48 174.028 13.48C176.14 13.48 177.196 14.052 177.196 15.196V36.008C177.196 42.5493 172.767 45.82 163.908 45.82C159.244 45.82 156.076 45.3653 154.404 44.456C153.671 44.0453 153.304 43.62 153.304 43.18C153.304 42.476 153.598 41.288 154.184 39.616C154.771 37.9733 155.314 37.152 155.812 37.152C155.93 37.152 156.34 37.24 157.044 37.416C159.215 38.0027 161.019 38.296 162.456 38.296C163.923 38.296 164.876 38.1347 165.316 37.812C165.786 37.4893 166.02 36.932 166.02 36.14Z"/>
</mask>
<path d="M27.156 37.152L24.7905 33.9264H24.7905L27.156 37.152ZM23.46 38.78L24.4816 42.6474L24.5061 42.6409L24.5306 42.6341L23.46 38.78ZM5.552 37.416L3.72017 40.9719H3.72017L5.552 37.416ZM4.804 30.86L8.66894 31.8907L8.67105 31.8828L8.67312 31.8749L4.804 30.86ZM10.128 29.364L11.4216 25.579H11.4216L10.128 29.364ZM17.652 30.2L19.8708 33.5282L19.9632 33.4666L20.052 33.4L17.652 30.2ZM17.212 27.868L15.1771 31.3117L15.2363 31.3467L15.2966 31.3796L17.212 27.868ZM14.792 26.9L13.632 30.7281L13.6855 30.7443L13.7395 30.7591L14.792 26.9ZM11.624 25.668L9.91165 29.283L9.92967 29.2915L9.94777 29.2998L11.624 25.668ZM8.5 23.908L10.7188 20.5798H10.7188L8.5 23.908ZM6.08 21.18L2.55536 23.0713L2.56515 23.0895L2.57514 23.1077L6.08 21.18ZM24.296 7.892L23.5853 11.8284L23.6118 11.8331L23.6384 11.8376L24.296 7.892ZM28.74 9.124L26.8077 12.6263L26.8787 12.6655L26.9511 12.7017L28.74 9.124ZM28.96 15.372L25.2677 13.8335L25.2567 13.8599L25.2461 13.8864L28.96 15.372ZM25.748 17.616L24.1389 21.2781L24.1859 21.2987L24.2335 21.3182L25.748 17.616ZM18.312 16.692L16.5231 13.1143L16.4761 13.1378L16.4296 13.1626L18.312 16.692ZM18.62 18.98L16.8311 22.5577L16.8974 22.5908L16.9648 22.6215L18.62 18.98ZM20.996 19.816L19.913 23.6666L19.983 23.6863L20.0536 23.7034L20.996 19.816ZM24.12 20.96L22.4077 24.575L22.4643 24.6018L22.5217 24.6268L24.12 20.96ZM27.288 22.764L24.9353 25.9989L24.9678 26.0226L25.0008 26.0456L27.288 22.764ZM29.708 25.668L33.269 23.8461V23.8461L29.708 25.668ZM29.312 34.864L32.6913 37.0042L32.6923 37.0026L29.312 34.864ZM24.7905 33.9264C24.4458 34.1792 23.7198 34.5564 22.3894 34.9259L24.5306 42.6341C26.3682 42.1236 28.1062 41.4155 29.5215 40.3776L24.7905 33.9264ZM22.4384 34.9126C21.3471 35.2009 19.7035 35.396 17.388 35.396V43.396C20.0592 43.396 22.4635 43.1804 24.4816 42.6474L22.4384 34.9126ZM17.388 35.396C15.1462 35.396 13.0433 35.2092 11.0726 34.8462L9.62335 42.7138C12.1114 43.1721 14.7018 43.396 17.388 43.396V35.396ZM11.0726 34.8462C8.90595 34.4471 7.79848 34.0737 7.38383 33.8601L3.72017 40.9719C5.24152 41.7556 7.33138 42.2916 9.62335 42.7138L11.0726 34.8462ZM7.38383 33.8601C7.07748 33.7023 7.12054 33.6797 7.29143 33.8506C7.45597 34.0151 8.1 34.7346 8.1 35.964H0.0999999C0.0999999 37.6627 0.98603 38.8589 1.63457 39.5074C2.28946 40.1623 3.05852 40.631 3.72017 40.9719L7.38383 33.8601ZM8.1 35.964C8.1 34.7047 8.27965 33.3505 8.66894 31.8907L0.93906 29.8293C0.389688 31.8895 0.0999999 33.9379 0.0999999 35.964H8.1ZM8.67312 31.8749C8.87043 31.1226 9.00485 30.9046 8.96912 30.962C8.94338 31.0033 8.77437 31.2716 8.39596 31.5531C7.97175 31.8687 7.30848 32.176 6.476 32.176V24.176C4.06131 24.176 2.70984 25.8797 2.17888 26.732C1.58582 27.684 1.20691 28.808 0.934882 29.8451L8.67312 31.8749ZM6.476 32.176C6.23107 32.176 6.04159 32.1527 5.96285 32.1422C5.86654 32.1294 5.79114 32.1156 5.74817 32.1073C5.6635 32.0908 5.60523 32.0761 5.59289 32.073C5.56409 32.0657 5.57015 32.0665 5.63246 32.085C5.74917 32.1196 5.94592 32.1813 6.23962 32.2768C6.81956 32.4655 7.68085 32.7548 8.83438 33.149L11.4216 25.579C10.2578 25.1812 9.35178 24.8765 8.71438 24.6692C8.39942 24.5667 8.12499 24.4799 7.90804 24.4155C7.80352 24.3845 7.67712 24.3482 7.55023 24.3161C7.48885 24.3006 7.39014 24.2767 7.27361 24.254C7.23328 24.2462 6.89711 24.176 6.476 24.176V32.176ZM8.83438 33.149C11.2167 33.9633 13.4903 34.552 15.364 34.552V26.552C14.891 26.552 13.6739 26.3487 11.4216 25.579L8.83438 33.149ZM15.364 34.552C16.0611 34.552 16.7668 34.5186 17.4242 34.4175C17.9832 34.3315 18.9599 34.1355 19.8708 33.5282L15.4332 26.8718C15.5999 26.7607 15.7464 26.6858 15.8544 26.637C15.9633 26.5879 16.0504 26.5574 16.1065 26.5397C16.2124 26.5062 16.2563 26.503 16.2078 26.5105C16.1646 26.5172 16.0739 26.5283 15.925 26.5373C15.7782 26.5462 15.5927 26.552 15.364 26.552V34.552ZM20.052 33.4C21.4869 32.3238 22.18 30.7307 22.18 29.1H14.18C14.18 28.8276 14.2335 28.4303 14.4419 27.9961C14.6545 27.5533 14.9568 27.2214 15.252 27L20.052 33.4ZM22.18 29.1C22.18 26.4499 20.2729 24.9812 19.1274 24.3564L15.2966 31.3796C15.2957 31.3791 15.2829 31.3721 15.2605 31.3575C15.2381 31.343 15.2035 31.3193 15.16 31.285C15.0752 31.2181 14.9393 31.0978 14.7927 30.9113C14.4664 30.496 14.18 29.863 14.18 29.1H22.18ZM19.2469 24.4243C18.2104 23.8118 17.0486 23.3693 15.8445 23.0409L13.7395 30.7591C14.4714 30.9587 14.9229 31.1615 15.1771 31.3117L19.2469 24.4243ZM15.952 23.0719C15.197 22.8431 14.3156 22.5048 13.3002 22.0362L9.94777 29.2998C11.2204 29.8872 12.451 30.3702 13.632 30.7281L15.952 23.0719ZM13.3363 22.053C12.3868 21.6033 11.5158 21.1112 10.7188 20.5798L6.2812 27.2362C7.42017 27.9955 8.63188 28.6767 9.91165 29.283L13.3363 22.053ZM10.7188 20.5798C10.3615 20.3416 9.96736 19.9478 9.58486 19.2523L2.57514 23.1077C3.48331 24.7589 4.70245 26.1837 6.2812 27.2362L10.7188 20.5798ZM9.60464 19.2887C9.30663 18.7334 9.112 18.0322 9.112 17.088H1.112C1.112 19.1945 1.5627 21.2213 2.55536 23.0713L9.60464 19.2887ZM9.112 17.088C9.112 14.6528 9.80502 13.4906 10.5957 12.8282C11.522 12.0522 13.3463 11.32 16.772 11.32V3.32C12.4244 3.32 8.41864 4.21578 5.4583 6.69576C2.36231 9.28939 1.112 13.0112 1.112 17.088H9.112ZM16.772 11.32C19.515 11.32 21.7733 11.5012 23.5853 11.8284L25.0067 3.95565C22.5947 3.52014 19.837 3.32 16.772 3.32V11.32ZM23.6384 11.8376C24.6052 11.9987 25.3579 12.1621 25.9224 12.3186C26.2022 12.3962 26.4152 12.4664 26.5715 12.5254C26.6486 12.5545 26.7063 12.5787 26.7472 12.5972C26.7674 12.6063 26.7824 12.6135 26.7927 12.6186C26.8031 12.6238 26.8078 12.6264 26.8077 12.6263L30.6723 5.62169C29.1779 4.7972 27.1057 4.30511 24.9536 3.94642L23.6384 11.8376ZM26.9511 12.7017C27.2029 12.8276 27.1094 12.8202 26.9016 12.6124C26.6856 12.3964 26.06 11.659 26.06 10.444H34.06C34.06 8.78897 33.2144 7.61156 32.5584 6.95557C31.9106 6.30777 31.1571 5.86041 30.5289 5.54629L26.9511 12.7017ZM26.06 10.444C26.06 11.3271 25.847 12.4433 25.2677 13.8335L32.6523 16.9105C33.5397 14.7807 34.06 12.6116 34.06 10.444H26.06ZM25.2461 13.8864C25.109 14.2292 24.9913 14.4817 24.8972 14.66C24.8 14.8442 24.7518 14.9036 24.7661 14.8854C24.7724 14.8773 24.9167 14.6894 25.2322 14.4858C25.5755 14.2644 26.1475 14.012 26.892 14.012V22.012C29.0806 22.012 30.4522 20.5996 31.0639 19.8186C31.7492 18.9439 32.2643 17.8815 32.6739 16.8576L25.2461 13.8864ZM26.892 14.012C27.065 14.012 27.2068 14.0237 27.3033 14.0343C27.403 14.0453 27.4852 14.0584 27.5442 14.0691C27.6586 14.0897 27.7415 14.1108 27.7781 14.1204C27.8494 14.1393 27.8738 14.1495 27.8264 14.1331C27.7875 14.1196 27.7213 14.0955 27.622 14.0572C27.5243 14.0196 27.4052 13.9722 27.2625 13.9138L24.2335 21.3182C24.583 21.4612 24.9174 21.5918 25.2096 21.6929C25.3528 21.7425 25.5349 21.8022 25.7309 21.8541C25.8267 21.8794 26.3043 22.012 26.892 22.012V14.012ZM27.3571 13.9539C25.1977 13.0051 22.9958 12.34 20.908 12.34V20.34C21.4016 20.34 22.4263 20.5256 24.1389 21.2781L27.3571 13.9539ZM20.908 12.34C20.1691 12.34 19.4454 12.3734 18.7755 12.4643C18.1564 12.5482 17.3259 12.7129 16.5231 13.1143L20.1009 20.2697C19.9097 20.3653 19.7792 20.4002 19.7583 20.4057C19.7313 20.4129 19.7564 20.4045 19.8505 20.3917C20.0459 20.3652 20.3856 20.34 20.908 20.34V12.34ZM16.4296 13.1626C15.6777 13.5636 14.9282 14.1831 14.387 15.085C13.8459 15.987 13.652 16.9398 13.652 17.792H21.652C21.652 18.1456 21.5681 18.6657 21.247 19.201C20.9258 19.7363 20.5063 20.055 20.1944 20.2214L16.4296 13.1626ZM13.652 17.792C13.652 20.5042 15.6351 21.9597 16.8311 22.5577L20.4089 15.4023C20.417 15.4064 20.4822 15.4393 20.5809 15.5126C20.6799 15.5861 20.8325 15.715 20.9949 15.9143C21.3601 16.3625 21.652 17.0226 21.652 17.792H13.652ZM16.9648 22.6215C17.8494 23.0236 18.8457 23.3664 19.913 23.6666L22.079 15.9654C21.269 15.7376 20.6813 15.5231 20.2752 15.3385L16.9648 22.6215ZM20.0536 23.7034C20.7024 23.8607 21.4839 24.1374 22.4077 24.575L25.8323 17.345C24.5268 16.7266 23.2256 16.2406 21.9384 15.9286L20.0536 23.7034ZM22.5217 24.6268C23.4106 25.0143 24.2121 25.473 24.9353 25.9989L29.6407 19.5291C28.4279 18.647 27.1174 17.9031 25.7183 17.2932L22.5217 24.6268ZM25.0008 26.0456C25.333 26.2771 25.7407 26.6957 26.147 27.4899L33.269 23.8461C32.3847 22.1177 31.179 20.6002 29.5752 19.4824L25.0008 26.0456ZM26.147 27.4899C26.4561 28.0941 26.676 28.9158 26.676 30.068H34.676C34.676 27.8762 34.2505 25.7646 33.269 23.8461L26.147 27.4899ZM26.676 30.068C26.676 31.0986 26.4216 31.951 25.9317 32.7254L32.6923 37.0026C34.021 34.9023 34.676 32.5574 34.676 30.068H26.676ZM25.9327 32.7238C25.6552 33.1619 25.2873 33.5621 24.7905 33.9264L29.5215 40.3776C30.7847 39.4512 31.8541 38.326 32.6913 37.0042L25.9327 32.7238ZM35.2651 36.844L32.0783 39.2615L32.0914 39.2788L32.1047 39.296L35.2651 36.844ZM35.9251 14.316L37.0923 18.1419L37.1218 18.1329L37.1512 18.1234L35.9251 14.316ZM45.4731 31.52L41.5306 32.1959L41.5322 32.2055L41.5339 32.2151L45.4731 31.52ZM50.9291 14.272L52.0443 18.1134L50.9291 14.272ZM57.3091 38.736L57.6883 42.718L57.3091 38.736ZM49.1251 38.296L53.1173 38.0465L53.106 37.8663L53.0785 37.6878L49.1251 38.296ZM48.6851 35.436L52.6385 34.8278L52.1167 31.436H48.6851V35.436ZM48.3331 35.436V31.436H45.21L44.4525 34.4659L48.3331 35.436ZM46.7491 38.032L44.1552 34.987L44.1459 34.995L46.7491 38.032ZM44.9011 39L46.166 42.7947L46.2063 42.7813L46.2464 42.767L44.9011 39ZM42.1731 35.396C39.4589 35.396 38.6568 34.6903 38.4254 34.392L32.1047 39.296C34.5133 42.4004 38.3165 43.396 42.1731 43.396V35.396ZM38.4518 34.4265C38.0011 33.8323 37.3291 32.026 37.3291 27.956H29.3291C29.3291 32.334 29.9477 36.453 32.0783 39.2615L38.4518 34.4265ZM37.3291 27.956V15.988H29.3291V27.956H37.3291ZM37.3291 15.988C37.3291 16.8919 36.9791 17.5731 36.6815 17.9666C36.4123 18.3224 36.165 18.4793 36.144 18.4929C36.1177 18.5098 36.3561 18.3665 37.0923 18.1419L34.7578 10.4901C33.7633 10.7935 32.7038 11.1929 31.8122 11.7671C31.0936 12.2299 29.3291 13.5595 29.3291 15.988H37.3291ZM37.1512 18.1234C38.4667 17.6998 39.8703 17.48 41.3811 17.48V9.48C39.0785 9.48 36.8447 9.81753 34.6989 10.5086L37.1512 18.1234ZM41.3811 17.48C41.8576 17.48 42.1792 17.5116 42.3762 17.5456C42.5832 17.5813 42.5617 17.6041 42.4144 17.5279C42.2486 17.4421 41.9014 17.2166 41.6075 16.7606C41.3017 16.286 41.2091 15.8027 41.2091 15.46H49.2091C49.2091 14.4573 48.9569 13.3965 48.3321 12.4269C47.7192 11.4759 46.8936 10.8379 46.0898 10.4221C44.599 9.65105 42.8719 9.48 41.3811 9.48V17.48ZM41.2091 15.46V26.636H49.2091V15.46H41.2091ZM41.2091 26.636C41.2091 28.8965 41.2934 30.8126 41.5306 32.1959L49.4156 30.8441C49.3007 30.1741 49.2091 28.8341 49.2091 26.636H41.2091ZM41.5339 32.2151C41.688 33.088 42.0378 34.2708 42.9357 35.2885C43.964 36.4539 45.3696 37.016 46.7931 37.016V29.016C47.0966 29.016 47.4909 29.0717 47.9129 29.2557C48.3407 29.4422 48.6835 29.7112 48.9344 29.9955C49.3924 30.5145 49.4342 30.9494 49.4122 30.8249L41.5339 32.2151ZM46.7931 37.016C47.7288 37.016 49.1761 36.8329 50.4285 35.7762C51.8111 34.6096 52.2011 33.0356 52.2011 31.828H44.2011C44.2011 31.4124 44.3563 30.4324 45.2696 29.6618C45.664 29.329 46.0558 29.1672 46.3261 29.0911C46.5858 29.0181 46.7595 29.016 46.7931 29.016V37.016ZM52.2011 31.828V15.988H44.2011V31.828H52.2011ZM52.2011 15.988C52.2011 16.8885 51.8508 17.5697 51.5479 17.9655C51.2757 18.321 51.0275 18.4736 51.0129 18.4828C51 18.4909 51.2648 18.3397 52.0443 18.1134L49.8138 10.4306C48.7747 10.7323 47.6754 11.1311 46.7533 11.7112C46.0015 12.184 44.2011 13.5242 44.2011 15.988H52.2011ZM52.0443 18.1134C53.4568 17.7033 55.0566 17.48 56.8691 17.48V9.48C54.3988 9.48 52.0387 9.78469 49.8138 10.4306L52.0443 18.1134ZM56.8691 17.48C57.2375 17.48 57.4617 17.5055 57.573 17.5253C57.6936 17.5468 57.5987 17.5469 57.3932 17.4371C57.1669 17.3162 56.7914 17.0511 56.4867 16.5626C56.1741 16.0616 56.0811 15.5578 56.0811 15.196H64.0811C64.0811 14.2622 63.8542 13.2579 63.2739 12.3279C62.7015 11.4104 61.9245 10.7878 61.1629 10.3809C59.759 9.63091 58.1653 9.48 56.8691 9.48V17.48ZM56.0811 15.196V37.856H64.0811V15.196H56.0811ZM56.0811 37.856C56.0811 36.2494 57.0414 35.2972 57.4836 34.9603C57.7131 34.7854 57.9056 34.6876 58.0029 34.6423C58.1061 34.5942 58.1711 34.5736 58.1777 34.5715C58.1838 34.5696 58.0908 34.598 57.8541 34.6381C57.6279 34.6764 57.3238 34.7165 56.9298 34.754L57.6883 42.718C58.6879 42.6228 59.722 42.4747 60.5984 42.1965C61.0149 42.0643 61.6874 41.8148 62.332 41.3237C63.0052 40.8108 64.0811 39.6679 64.0811 37.856H56.0811ZM56.9298 34.754C55.2032 34.9185 53.5112 35 51.8531 35V43C53.7736 43 55.7189 42.9055 57.6883 42.718L56.9298 34.754ZM51.8531 35C51.05 35 50.783 34.9391 50.8286 34.9509C50.8393 34.9537 51.2353 35.0464 51.7121 35.404C52.2802 35.8301 53.034 36.7133 53.1173 38.0465L45.1329 38.5455C45.2308 40.1133 46.1093 41.2019 46.9121 41.804C47.6235 42.3376 48.3642 42.577 48.8296 42.6971C49.7844 42.9435 50.8668 43 51.8531 43V35ZM53.0785 37.6878L52.6385 34.8278L44.7316 36.0442L45.1716 38.9042L53.0785 37.6878ZM48.6851 31.436H48.3331V39.436H48.6851V31.436ZM44.4525 34.4659C44.3807 34.7528 44.282 34.879 44.1552 34.987L49.3429 41.077C50.8001 39.8357 51.7574 38.2312 52.2136 36.4061L44.4525 34.4659ZM44.1459 34.995C44.2239 34.9281 44.2354 34.9358 44.123 34.9947C44.0151 35.0512 43.8331 35.134 43.5557 35.233L46.2464 42.767C47.281 42.3975 48.413 41.8741 49.3522 41.069L44.1459 34.995ZM43.6362 35.2053C43.3333 35.3062 42.8648 35.396 42.1731 35.396V43.396C43.5347 43.396 44.8848 43.2218 46.166 42.7947L43.6362 35.2053ZM87.1734 38.736L87.5921 42.714L87.6266 42.7104L87.6609 42.7062L87.1734 38.736ZM78.5494 38.78L77.2181 42.552L77.347 42.5975L77.4788 42.6341L78.5494 38.78ZM77.6254 21.356L73.7142 22.1941L73.7423 22.3256L73.7793 22.4549L77.6254 21.356ZM77.3614 20.256L81.2204 19.2035L81.1748 19.0361L81.1147 18.8732L77.3614 20.256ZM72.5214 38.736L72.9475 42.7132L72.9782 42.7099L73.0089 42.7062L72.5214 38.736ZM63.9414 38.78L62.6765 42.5747L62.7729 42.6069L62.8708 42.6341L63.9414 38.78ZM65.6574 14.404L64.2956 10.6429L64.2851 10.6468L64.2746 10.6506L65.6574 14.404ZM74.1934 15.108L78.1122 14.3064L78.1078 14.2845L78.103 14.2627L74.1934 15.108ZM74.5894 17.044L70.6705 17.8456L71.3247 21.044H74.5894V17.044ZM74.8974 17.044V21.044H77.3695L78.4751 18.8329L74.8974 17.044ZM79.2974 13.48L78.1118 9.65974L78.0882 9.66707L78.0647 9.67468L79.2974 13.48ZM88.0974 15.768L84.6279 17.7587L84.6473 17.7925L84.6674 17.826L88.0974 15.768ZM85.6814 24.392V37.944H93.6814V24.392H85.6814ZM85.6814 37.944C85.6814 36.0996 86.902 35.1288 87.2269 34.9008C87.4441 34.7484 87.6212 34.6639 87.7041 34.627C87.7941 34.587 87.8485 34.5701 87.8499 34.5697C87.854 34.5684 87.8308 34.5758 87.7734 34.5895C87.7171 34.6029 87.6386 34.6198 87.5349 34.6393C87.3249 34.6786 87.0452 34.7217 86.6858 34.7658L87.6609 42.7062C88.5615 42.5956 89.4823 42.4436 90.2589 42.1983C90.621 42.084 91.2273 41.8668 91.8223 41.4492C92.3563 41.0745 93.6814 39.9498 93.6814 37.944H85.6814ZM86.7546 34.758C85.2303 34.9184 83.6397 35 81.9814 35V43C83.9017 43 85.7725 42.9056 87.5921 42.714L86.7546 34.758ZM81.9814 35C81.1469 35 80.5139 34.9823 80.0593 34.9532C79.833 34.9387 79.6785 34.923 79.5827 34.9104C79.4717 34.8958 79.5033 34.8935 79.6199 34.9259L77.4788 42.6341C78.1648 42.8246 78.9306 42.8973 79.5475 42.9368C80.2369 42.981 81.0559 43 81.9814 43V35ZM79.8807 35.008C80.0178 35.0564 80.4983 35.2454 80.9693 35.7718C81.5151 36.3818 81.8014 37.172 81.8014 37.944H73.8014C73.8014 39.0973 74.2123 40.2176 75.0074 41.1062C75.7278 41.9113 76.5823 42.3276 77.2181 42.552L79.8807 35.008ZM81.8014 37.944V23.952H73.8014V37.944H81.8014ZM81.8014 23.952C81.8014 22.743 81.7696 21.3005 81.4715 20.2571L73.7793 22.4549C73.738 22.3102 73.7321 22.2394 73.7399 22.2958C73.7458 22.3386 73.7561 22.4302 73.7665 22.5836C73.7875 22.8927 73.8014 23.341 73.8014 23.952H81.8014ZM81.5366 20.5179C81.4369 20.0525 81.3319 19.6123 81.2204 19.2035L73.5023 21.3085C73.5668 21.545 73.6379 21.8381 73.7142 22.1941L81.5366 20.5179ZM81.1147 18.8732C80.8239 18.0837 80.2959 17.1612 79.3527 16.4443C78.3739 15.7005 77.2658 15.42 76.2614 15.42V23.42C75.7849 23.42 75.1242 23.2789 74.512 22.8136C73.9355 22.3755 73.6935 21.871 73.608 21.6388L81.1147 18.8732ZM76.2614 15.42C75.2698 15.42 73.785 15.6572 72.5608 16.8376C71.3096 18.0442 71.0294 19.5577 71.0294 20.608H79.0294C79.0294 20.8663 78.9545 21.7858 78.1139 22.5964C77.3004 23.3808 76.4316 23.42 76.2614 23.42V15.42ZM71.0294 20.608V37.944H79.0294V20.608H71.0294ZM71.0294 37.944C71.0294 36.0996 72.25 35.1288 72.5749 34.9008C72.7921 34.7484 72.9692 34.6639 73.0521 34.627C73.1421 34.587 73.1965 34.5701 73.1979 34.5697C73.202 34.5684 73.1788 34.5758 73.1214 34.5895C73.0651 34.6029 72.9866 34.6198 72.8829 34.6393C72.6729 34.6786 72.3932 34.7217 72.0338 34.7658L73.0089 42.7062C73.9095 42.5956 74.8303 42.4436 75.6069 42.1983C75.969 42.084 76.5753 41.8668 77.1703 41.4492C77.7043 41.0745 79.0294 39.9498 79.0294 37.944H71.0294ZM72.0952 34.7588C70.6052 34.9184 69.032 35 67.3734 35V43C69.2934 43 71.1522 42.9056 72.9475 42.7132L72.0952 34.7588ZM67.3734 35C66.5389 35 65.9059 34.9823 65.4513 34.9532C65.225 34.9387 65.0705 34.923 64.9747 34.9104C64.8637 34.8958 64.8953 34.8935 65.012 34.9259L62.8708 42.6341C63.5568 42.8246 64.3226 42.8973 64.9395 42.9368C65.6289 42.981 66.4479 43 67.3734 43V35ZM65.2063 34.9853C65.3045 35.018 65.7732 35.1835 66.2512 35.688C66.8179 36.2862 67.1494 37.1037 67.1494 37.944H59.1494C59.1494 39.1657 59.6129 40.3132 60.4436 41.19C61.1855 41.9731 62.0502 42.366 62.6765 42.5747L65.2063 34.9853ZM67.1494 37.944V16.252H59.1494V37.944H67.1494ZM67.1494 16.252C67.1494 17.053 66.8661 17.6675 66.616 18.036C66.3869 18.3737 66.1723 18.5312 66.1492 18.5482C66.1139 18.5742 66.1559 18.5386 66.3237 18.4562C66.485 18.377 66.7185 18.2759 67.0402 18.1574L64.2746 10.6506C63.299 11.01 62.2656 11.4726 61.4036 12.1078C60.6562 12.6585 59.1494 14.0056 59.1494 16.252H67.1494ZM67.0191 18.1651C68.2676 17.713 69.5947 17.48 71.0254 17.48V9.48C68.7014 9.48 66.4499 9.86295 64.2956 10.6429L67.0191 18.1651ZM71.0254 17.48C71.3101 17.48 71.4772 17.5012 71.5517 17.515C71.6287 17.5292 71.5552 17.526 71.3971 17.4447C71.2266 17.3571 70.9688 17.1834 70.7289 16.8807C70.4838 16.5715 70.3454 16.2385 70.2837 15.9533L78.103 14.2627C77.7133 12.4603 76.562 11.1044 75.0536 10.3293C73.7245 9.64622 72.2679 9.48 71.0254 9.48V17.48ZM70.2745 15.9096L70.6705 17.8456L78.5082 16.2424L78.1122 14.3064L70.2745 15.9096ZM74.5894 21.044H74.8974V13.044H74.5894V21.044ZM78.4751 18.8329C78.7727 18.2376 79.3004 17.6837 80.5301 17.2853L78.0647 9.67468C75.129 10.6257 72.7234 12.4477 71.3197 15.2551L78.4751 18.8329ZM80.483 17.3003C80.8963 17.172 81.4286 17.084 82.1134 17.084V9.084C80.7448 9.084 79.3998 9.26001 78.1118 9.65974L80.483 17.3003ZM82.1134 17.084C83.2197 17.084 83.8603 17.2549 84.1944 17.4047C84.4699 17.5283 84.5608 17.6418 84.6279 17.7587L91.5668 13.7773C89.539 10.243 85.8166 9.084 82.1134 9.084V17.084ZM84.6674 17.826C85.1389 18.6117 85.6814 20.5599 85.6814 24.392H93.6814C93.6814 20.2455 93.1679 16.4443 91.5274 13.71L84.6674 17.826ZM97.9908 38.912L99.2912 35.1293L97.9908 38.912ZM95.6588 37.724L93.1601 40.8475L93.197 40.877L93.2347 40.9057L95.6588 37.724ZM94.1188 35.832L90.6222 37.7746L94.1188 35.832ZM93.1068 33.588L89.2971 34.8071L89.3045 34.8301L89.3121 34.8529L93.1068 33.588ZM92.5788 30.904L96.5544 30.4623L96.5535 30.454L92.5788 30.904ZM94.5588 16.296L97.8229 18.6081L97.8304 18.5975L97.8379 18.5868L94.5588 16.296ZM106.527 14.976L109.5 12.3001L109.462 12.2574L109.422 12.2157L106.527 14.976ZM107.143 16.032L103.376 17.3773L104.324 20.032H107.143V16.032ZM107.495 16.032V20.032H112.251L111.436 15.3466L107.495 16.032ZM106.967 12.996H102.967V13.3412L103.026 13.6814L106.967 12.996ZM109.431 5.604L108.026 1.85868V1.85868L109.431 5.604ZM118.583 5.824L121.86 3.53016L121.836 3.4968L121.812 3.46393L118.583 5.824ZM116.427 38.736L116.861 42.7124L116.892 42.709L116.923 42.7051L116.427 38.736ZM108.815 38.868L107.716 42.7141L107.872 42.7586L108.03 42.7903L108.815 38.868ZM108.023 38.516L104.823 40.916L104.993 41.1434L105.194 41.3444L108.023 38.516ZM107.847 37.944L111.822 37.5023L111.816 37.4451L111.808 37.388L107.847 37.944ZM107.495 35.436L111.456 34.88L110.973 31.436H107.495V35.436ZM107.143 35.436V31.436H104.041L103.269 34.4398L107.143 35.436ZM105.559 38.032L102.901 35.0424L102.882 35.0592L102.864 35.0762L105.559 38.032ZM107.011 32.092L110.725 33.5776L111.011 32.8623V32.092H107.011ZM106.527 19.684L104.469 23.114L104.664 23.2312L104.872 23.3255L106.527 19.684ZM104.635 31.476L100.761 32.4722L100.778 32.5387L100.797 32.6047L104.635 31.476ZM101.027 35.396C100.343 35.396 99.7741 35.2953 99.2912 35.1293L96.6905 42.6947C98.0849 43.1741 99.5403 43.396 101.027 43.396V35.396ZM99.2912 35.1293C98.6488 34.9084 98.2786 34.6913 98.083 34.5423L93.2347 40.9057C94.2711 41.6954 95.4556 42.2702 96.6905 42.6947L99.2912 35.1293ZM98.1576 34.6005C98.0516 34.5157 97.8536 34.3181 97.6155 33.8894L90.6222 37.7746C91.2641 38.9299 92.0928 39.9936 93.1601 40.8475L98.1576 34.6005ZM97.6155 33.8894C97.2703 33.2682 97.0432 32.7478 96.9016 32.3231L89.3121 34.8529C89.6399 35.8362 90.0874 36.8118 90.6222 37.7746L97.6155 33.8894ZM96.9165 32.3689C96.7868 31.9634 96.6526 31.346 96.5544 30.4623L88.6033 31.3457C88.7398 32.574 88.9576 33.7459 89.2971 34.8071L96.9165 32.3689ZM96.5535 30.454C96.3982 29.0828 96.3148 27.4629 96.3148 25.58H88.3148C88.3148 27.6864 88.4075 29.6159 88.6042 31.354L96.5535 30.454ZM96.3148 25.58C96.3148 21.8897 97.0096 19.7563 97.8229 18.6081L91.2947 13.9839C89.1161 17.0597 88.3148 21.1157 88.3148 25.58H96.3148ZM97.8379 18.5868C98.5861 17.5158 99.4156 17.084 100.719 17.084V9.084C96.8007 9.084 93.5236 10.7935 91.2798 14.0052L97.8379 18.5868ZM100.719 17.084C102.868 17.084 103.505 17.6033 103.632 17.7363L109.422 12.2157C107.143 9.826 103.908 9.084 100.719 9.084V17.084ZM103.554 17.6519C103.434 17.5189 103.386 17.406 103.376 17.3773L110.91 14.6867C110.606 13.8366 110.148 13.0198 109.5 12.3001L103.554 17.6519ZM107.143 20.032H107.495V12.032H107.143V20.032ZM111.436 15.3466L110.908 12.3106L103.026 13.6814L103.554 16.7174L111.436 15.3466ZM110.967 12.996V7.496H102.967V12.996H110.967ZM110.967 7.496C110.967 8.22911 110.723 8.80908 110.484 9.17973C110.266 9.51946 110.054 9.68434 110.019 9.7116C109.974 9.74589 110.004 9.71605 110.159 9.63792C110.307 9.56292 110.527 9.46497 110.835 9.34931L108.026 1.85868C107.054 2.22349 106.014 2.70036 105.147 3.3664C104.348 3.97947 102.967 5.33244 102.967 7.496H110.967ZM110.835 9.34931C111.991 8.91579 113.286 8.68 114.755 8.68V0.679998C112.41 0.679998 110.156 1.06021 108.026 1.85868L110.835 9.34931ZM114.755 8.68C115.13 8.68 115.426 8.69812 115.653 8.72458C115.882 8.75134 116.011 8.78319 116.062 8.79851C116.198 8.83899 115.764 8.74553 115.353 8.18406L121.812 3.46393C120.845 2.13981 119.494 1.47434 118.353 1.13348C117.208 0.791272 115.967 0.679998 114.755 0.679998V8.68ZM115.306 8.11784C115.146 7.88939 114.891 7.39772 114.891 6.704H122.891C122.891 5.42361 122.43 4.34528 121.86 3.53016L115.306 8.11784ZM114.891 6.704V37.944H122.891V6.704H114.891ZM114.891 37.944C114.891 36.1321 116.073 35.1624 116.412 34.9201C116.63 34.7641 116.81 34.6768 116.896 34.6378C116.989 34.5958 117.046 34.5774 117.051 34.5759C117.054 34.5749 116.969 34.6012 116.756 34.6416C116.554 34.6803 116.282 34.723 115.931 34.7669L116.923 42.7051C117.81 42.5942 118.725 42.441 119.499 42.1921C119.861 42.0759 120.467 41.8546 121.062 41.4299C121.606 41.0409 122.891 39.9172 122.891 37.944H114.891ZM115.993 34.7596C114.515 34.9209 113.09 35 111.719 35V43C113.398 43 115.112 42.9031 116.861 42.7124L115.993 34.7596ZM111.719 35C111.003 35 110.453 34.9893 110.052 34.9711C109.853 34.9621 109.711 34.952 109.617 34.9432C109.51 34.9332 109.519 34.9297 109.599 34.9457L108.03 42.7903C108.933 42.9709 110.322 43 111.719 43V35ZM109.914 35.0219C109.812 34.9927 109.835 34.9931 109.933 35.0368C109.986 35.0601 110.095 35.1112 110.235 35.1974C110.367 35.2788 110.599 35.435 110.851 35.6876L105.194 41.3444C105.767 41.9166 106.386 42.2146 106.684 42.3472C107.047 42.5082 107.407 42.6259 107.716 42.7141L109.914 35.0219ZM111.223 36.116C111.535 36.5326 111.675 36.9112 111.736 37.1087C111.8 37.3166 111.818 37.4615 111.822 37.5023L103.871 38.3857C103.925 38.8666 104.083 39.9297 104.823 40.916L111.223 36.116ZM111.808 37.388L111.456 34.88L103.534 35.992L103.886 38.5L111.808 37.388ZM107.495 31.436H107.143V39.436H107.495V31.436ZM103.269 34.4398C103.203 34.6961 103.098 34.8673 102.901 35.0424L108.216 41.0216C109.603 39.7887 110.555 38.2292 111.017 36.4322L103.269 34.4398ZM102.864 35.0762C102.864 35.0762 102.863 35.077 102.861 35.0784C102.859 35.0799 102.856 35.0822 102.852 35.0853C102.843 35.0914 102.828 35.1016 102.804 35.1148C102.755 35.1412 102.667 35.182 102.525 35.2247C102.232 35.3129 101.753 35.396 101.027 35.396V43.396C103.562 43.396 106.226 42.8368 108.254 40.9878L102.864 35.0762ZM105.955 36.972C107.1 36.972 108.218 36.5863 109.132 35.8249C109.974 35.1225 110.45 34.2655 110.725 33.5776L103.297 30.6064C103.337 30.5052 103.519 30.0881 104.01 29.6791C104.572 29.211 105.279 28.972 105.955 28.972V36.972ZM111.011 32.092V20.344H103.011V32.092H111.011ZM111.011 20.344C111.011 19.4143 110.738 18.4423 110.115 17.5935C109.526 16.7893 108.786 16.317 108.182 16.0425L104.872 23.3255C104.591 23.1977 104.093 22.9087 103.664 22.3245C103.203 21.6957 103.011 20.9803 103.011 20.344H111.011ZM108.585 16.254C107.937 15.8654 106.953 15.42 105.735 15.42V23.42C104.986 23.42 104.53 23.1506 104.469 23.114L108.585 16.254ZM105.735 15.42C103.664 15.42 102.357 16.7049 101.732 17.66C101.154 18.5447 100.87 19.5261 100.705 20.2842C100.361 21.8608 100.239 23.9262 100.239 26.284H108.239C108.239 24.0658 108.366 22.6992 108.521 21.9878C108.605 21.6019 108.633 21.7253 108.428 22.038C108.309 22.2196 108.047 22.5643 107.577 22.8727C107.066 23.2074 106.426 23.42 105.735 23.42V15.42ZM100.239 26.284C100.239 28.735 100.36 30.9121 100.761 32.4722L108.509 30.4798C108.382 29.9865 108.239 28.7023 108.239 26.284H100.239ZM100.797 32.6047C101.026 33.3811 101.422 34.3789 102.185 35.2445C103.052 36.2266 104.354 36.972 105.955 36.972V28.972C106.396 28.972 106.858 29.0707 107.29 29.2805C107.71 29.4844 108.001 29.7441 108.184 29.9515C108.508 30.3184 108.537 30.5683 108.472 30.3473L100.797 32.6047ZM124.042 37.504L121.438 40.541L121.465 40.564L121.493 40.5866L124.042 37.504ZM122.414 35.172L118.737 36.7477L118.756 36.7916L118.776 36.835L122.414 35.172ZM122.722 27.956L119.379 25.7593L119.357 25.7931L119.335 25.8273L122.722 27.956ZM128.442 24.216L127.429 20.3462L127.398 20.3544L127.366 20.3632L128.442 24.216ZM136.186 23.468V27.468H140.186V23.468H136.186ZM134.954 20.916L137.03 17.4968L136.999 17.4786L136.969 17.4609L134.954 20.916ZM130.73 21.18L129.337 17.4303L129.319 17.437L129.301 17.4438L130.73 21.18ZM128.222 22.368L130.19 25.8503L130.246 25.8184L130.301 25.7848L128.222 22.368ZM124.702 20.872L121.341 23.0421L121.352 23.0583L121.363 23.0744L124.702 20.872ZM124.966 15.548L122.991 12.0693V12.0693L124.966 15.548ZM129.542 13.876L130.525 17.7531L130.545 17.7481L130.565 17.7428L129.542 13.876ZM140.19 13.568L139.259 17.4583L139.308 17.47L139.357 17.4804L140.19 13.568ZM143.534 14.668L141.696 18.2209L141.72 18.2335L141.745 18.2457L143.534 14.668ZM145.734 16.428L142.61 18.9268L142.64 18.9641L142.671 19.0008L145.734 16.428ZM147.098 18.408L143.52 20.1969L143.555 20.267L143.593 20.3357L147.098 18.408ZM147.802 20.696L143.85 21.3135L143.859 21.3767L143.871 21.4396L147.802 20.696ZM145.734 38.736L146.184 42.7106L146.216 42.707L146.248 42.7028L145.734 38.736ZM138.078 38.868L137.293 42.7903L137.317 42.795L137.34 42.7995L138.078 38.868ZM137.286 38.56L140.486 36.16L137.286 38.56ZM137.066 37.944L133.104 38.5L133.121 38.6148L133.143 38.7285L137.066 37.944ZM136.714 35.436L140.675 34.88L140.191 31.436H136.714V35.436ZM136.362 35.436V31.436H133.321L132.508 34.3654L136.362 35.436ZM136.23 26.944H140.23V22.944H136.23V26.944ZM134.382 27.912L131.147 25.5593L134.382 27.912ZM135.878 32.752L138.481 35.789L138.496 35.7757L138.512 35.7623L135.878 32.752ZM130.334 35.396C128.27 35.396 127.183 34.9113 126.591 34.4214L121.493 40.5866C123.951 42.6193 127.059 43.396 130.334 43.396V35.396ZM126.645 34.467C126.606 34.434 126.368 34.2015 126.051 33.509L118.776 36.835C119.398 38.1958 120.245 39.518 121.438 40.541L126.645 34.467ZM126.09 33.5963C125.907 33.1696 125.754 32.5243 125.754 31.564H117.754C117.754 33.3611 118.04 35.1211 118.737 36.7477L126.09 33.5963ZM125.754 31.564C125.754 30.8328 125.916 30.3897 126.108 30.0847L119.335 25.8273C118.236 27.5756 117.754 29.5379 117.754 31.564H125.754ZM126.064 30.1527C126.448 29.5696 126.83 29.2297 127.184 29.0194L123.099 22.1406C121.576 23.0449 120.345 24.2891 119.379 25.7593L126.064 30.1527ZM127.184 29.0194C127.767 28.6734 128.529 28.3443 129.517 28.0688L127.366 20.3632C125.831 20.7917 124.394 21.372 123.099 22.1406L127.184 29.0194ZM129.454 28.0858C130.982 27.6861 132.734 27.468 134.734 27.468V19.468C132.157 19.468 129.715 19.7485 127.429 20.3462L129.454 28.0858ZM134.734 27.468H136.186V19.468H134.734V27.468ZM140.186 23.468C140.186 21.2733 139.356 18.9091 137.03 17.4968L132.878 24.3352C132.774 24.2724 132.654 24.1799 132.539 24.0531C132.422 23.9258 132.335 23.7915 132.275 23.667C132.157 23.4227 132.186 23.3095 132.186 23.468H140.186ZM136.969 17.4609C135.69 16.715 134.281 16.608 133.326 16.608V24.608C133.518 24.608 133.577 24.6225 133.539 24.6153C133.516 24.6109 133.449 24.597 133.352 24.5634C133.254 24.5298 133.109 24.471 132.938 24.3711L136.969 17.4609ZM133.326 16.608C131.958 16.608 130.589 16.9651 129.337 17.4303L132.122 24.9297C132.501 24.7891 132.794 24.7048 133.009 24.6573C133.228 24.609 133.326 24.608 133.326 24.608V16.608ZM129.301 17.4438C128.151 17.8837 127.081 18.3795 126.142 18.9512L130.301 25.7848C130.711 25.5352 131.314 25.239 132.158 24.9162L129.301 17.4438ZM126.253 18.8857C125.985 19.0375 125.853 19.0974 125.828 19.1082C125.817 19.1129 125.883 19.0837 126.008 19.049C126.074 19.0308 126.176 19.0056 126.306 18.9841C126.434 18.9631 126.623 18.94 126.858 18.94V26.94C127.825 26.94 128.625 26.6101 128.922 26.4858C129.35 26.3059 129.784 26.0798 130.19 25.8503L126.253 18.8857ZM126.858 18.94C127.598 18.94 128.123 19.1785 128.361 19.3102C128.602 19.4434 128.712 19.5561 128.691 19.5363C128.681 19.5259 128.614 19.4584 128.491 19.3025C128.371 19.1506 128.221 18.9433 128.041 18.6696L121.363 23.0744C121.889 23.8727 122.485 24.6686 123.154 25.3097C123.672 25.8068 124.965 26.94 126.858 26.94V18.94ZM128.062 18.7019C127.387 17.6567 127.338 17.1384 127.338 17.044H119.338C119.338 19.2376 120.198 21.2713 121.341 23.0421L128.062 18.7019ZM127.338 17.044C127.338 17.9093 127.032 18.5314 126.844 18.8356C126.656 19.1397 126.481 19.3017 126.451 19.3293C126.398 19.3777 126.506 19.2729 126.94 19.0267L122.991 12.0693C122.34 12.4391 121.633 12.8916 121.038 13.4387C120.63 13.8141 119.338 15.0556 119.338 17.044H127.338ZM126.94 19.0267C127.582 18.6622 128.72 18.2113 130.525 17.7531L128.558 9.99886C126.433 10.538 124.52 11.2018 122.991 12.0693L126.94 19.0267ZM130.565 17.7428C132.259 17.2946 133.85 17.084 135.35 17.084V9.084C133.094 9.084 130.814 9.40142 128.518 10.0092L130.565 17.7428ZM135.35 17.084C137.016 17.084 138.3 17.229 139.259 17.4583L141.12 9.67768C139.38 9.26171 137.438 9.084 135.35 9.084V17.084ZM139.357 17.4804C140.534 17.7309 141.274 18.0026 141.696 18.2209L145.371 11.1151C144.092 10.4534 142.602 9.99178 141.022 9.65558L139.357 17.4804ZM141.745 18.2457C142.132 18.4395 142.402 18.6669 142.61 18.9268L148.857 13.9292C147.892 12.7224 146.695 11.7765 145.322 11.0903L141.745 18.2457ZM142.671 19.0008C143.168 19.5931 143.415 19.9869 143.52 20.1969L150.675 16.6191C150.194 15.6558 149.531 14.7295 148.796 13.8552L142.671 19.0008ZM143.593 20.3357C143.619 20.3831 143.747 20.6574 143.85 21.3135L151.754 20.0785C151.563 18.8573 151.222 17.6062 150.602 16.4803L143.593 20.3357ZM143.871 21.4396C144.015 22.1996 144.11 23.268 144.11 24.7H152.11C152.11 22.964 151.999 21.3631 151.732 19.9524L143.871 21.4396ZM144.11 24.7V37.944H152.11V24.7H144.11ZM144.11 37.944C144.11 36.198 145.214 35.2317 145.58 34.9608C145.801 34.7974 145.984 34.7043 146.077 34.661C146.175 34.6146 146.239 34.593 146.251 34.5893C146.267 34.5839 146.196 34.6077 145.998 34.6468C145.81 34.684 145.554 34.7259 145.219 34.7692L146.248 42.7028C147.109 42.5912 148.01 42.4354 148.781 42.1787C149.142 42.0583 149.749 41.8285 150.342 41.3892C150.906 40.9717 152.11 39.8513 152.11 37.944H144.11ZM145.284 34.7614C143.877 34.9206 142.473 35 141.07 35V43C142.776 43 144.48 42.9034 146.184 42.7106L145.284 34.7614ZM141.07 35C140.339 35 139.772 34.9893 139.354 34.9709C138.887 34.9503 138.756 34.9255 138.815 34.9365L137.34 42.7995C138.242 42.9685 139.625 43 141.07 43V35ZM138.862 34.9457C138.754 34.9241 138.829 34.9306 138.999 34.997C139.089 35.0317 139.275 35.11 139.505 35.2533C139.719 35.387 140.116 35.6679 140.486 36.16L134.086 40.96C134.831 41.9534 135.813 42.3415 136.1 42.453C136.535 42.6221 136.961 42.7239 137.293 42.7903L138.862 34.9457ZM140.486 36.16C140.769 36.5377 140.892 36.8624 140.932 36.9727C140.979 37.106 140.992 37.1804 140.988 37.1595L133.143 38.7285C133.222 39.1219 133.429 40.0842 134.086 40.96L140.486 36.16ZM141.027 37.388L140.675 34.88L132.752 35.992L133.104 38.5L141.027 37.388ZM136.714 31.436H136.362V39.436H136.714V31.436ZM132.508 34.3654C132.361 34.8911 132.191 35.0089 132.108 35.0629C131.955 35.1638 131.473 35.396 130.334 35.396V43.396C132.479 43.396 134.645 42.9682 136.501 41.7491C138.428 40.4831 139.628 38.6209 140.216 36.5066L132.508 34.3654ZM140.23 32.092V26.944H132.23V32.092H140.23ZM136.23 22.944C134.119 22.944 132.328 23.9354 131.147 25.5593L137.617 30.2647C137.543 30.3661 137.364 30.5657 137.052 30.7293C136.733 30.8962 136.431 30.944 136.23 30.944V22.944ZM131.147 25.5593C130.165 26.9095 129.678 28.4718 129.678 30.112H137.678C137.678 30.0875 137.68 30.1122 137.663 30.1651C137.656 30.1892 137.646 30.212 137.636 30.2316C137.626 30.2511 137.618 30.2622 137.617 30.2647L131.147 25.5593ZM129.678 30.112C129.678 31.2579 129.788 32.6743 130.366 33.9452C130.677 34.6297 131.195 35.43 132.055 36.0601C132.958 36.7229 133.995 37.016 134.998 37.016V29.016C135.561 29.016 136.212 29.1881 136.786 29.6089C137.315 29.997 137.558 30.4343 137.649 30.6348C137.737 30.829 137.734 30.9094 137.715 30.7833C137.698 30.6695 137.678 30.4545 137.678 30.112H129.678ZM134.998 37.016C135.946 37.016 137.302 36.7991 138.481 35.789L133.274 29.715C134.042 29.0569 134.812 29.016 134.998 29.016V37.016ZM138.512 35.7623C139.313 35.0614 140.23 33.8281 140.23 32.092H132.23C132.23 30.8252 132.912 30.032 133.244 29.7417L138.512 35.7623ZM166.02 33.544H170.02V29.544H166.02V33.544ZM165.668 33.544V29.544H164.011L162.84 30.7156L165.668 33.544ZM165.008 34.116L162.51 30.9925V30.9925L165.008 34.116ZM162.94 35.04L164.266 38.8138H164.266L162.94 35.04ZM155.768 34.996L154.154 38.6557L154.218 38.6839L154.283 38.7099L155.768 34.996ZM153.392 33.28L150.269 35.7788L150.294 35.81L150.319 35.8407L153.392 33.28ZM152.028 30.376L155.892 29.3395L155.88 29.2965L155.868 29.2537L152.028 30.376ZM153.788 14.404L155.072 18.1923L155.101 18.1826L155.13 18.1724L153.788 14.404ZM168.088 14.404L169.299 18.2165L169.326 18.2078L169.353 18.1987L168.088 14.404ZM154.404 44.456L152.45 47.946L152.472 47.9581L152.493 47.9699L154.404 44.456ZM154.184 39.616L150.417 38.2707L150.414 38.2811L150.41 38.2916L154.184 39.616ZM157.044 37.416L158.088 33.5545L158.051 33.5446L158.014 33.5354L157.044 37.416ZM165.316 37.812L163.05 34.5158L163 34.5504L162.951 34.5864L165.316 37.812ZM170.02 36.14V33.544H162.02V36.14H170.02ZM166.02 29.544H165.668V37.544H166.02V29.544ZM162.84 30.7156C162.855 30.701 162.838 30.7185 162.774 30.7742C162.713 30.827 162.626 30.8991 162.51 30.9925L167.507 37.2395C167.839 36.9736 168.194 36.6751 168.497 36.3724L162.84 30.7156ZM162.51 30.9925C162.601 30.9195 162.673 30.871 162.712 30.8458C162.753 30.8195 162.778 30.8058 162.78 30.8042C162.783 30.8028 162.742 30.8253 162.64 30.871C162.432 30.9635 162.101 31.0952 161.614 31.2662L164.266 38.8138C164.865 38.6035 165.421 38.3905 165.903 38.175C166.312 37.9923 166.945 37.689 167.507 37.2395L162.51 30.9925ZM161.614 31.2662C161.022 31.4744 160.262 31.612 159.288 31.612V39.612C161.013 39.612 162.688 39.3682 164.266 38.8138L161.614 31.2662ZM159.288 31.612C158.381 31.612 157.726 31.471 157.254 31.2821L154.283 38.7099C155.864 39.3424 157.556 39.612 159.288 39.612V31.612ZM157.383 31.3363C156.844 31.0985 156.589 30.8677 156.465 30.7193L150.319 35.8407C151.369 37.1003 152.698 38.0135 154.154 38.6557L157.383 31.3363ZM156.516 30.7812C156.367 30.595 156.116 30.174 155.892 29.3395L148.165 31.4125C148.586 32.9834 149.245 34.4983 150.269 35.7788L156.516 30.7812ZM155.868 29.2537C155.468 27.8869 155.192 25.6316 155.192 22.28H147.192C147.192 25.9098 147.474 29.0518 148.189 31.4983L155.868 29.2537ZM155.192 22.28V16.208H147.192V22.28H155.192ZM155.192 16.208C155.192 17.0478 154.884 17.6879 154.615 18.0663C154.37 18.4106 154.143 18.5662 154.124 18.5798C154.104 18.5936 154.343 18.4396 155.072 18.1923L152.504 10.6157C151.503 10.955 150.444 11.395 149.559 12.0102C148.809 12.5313 147.192 13.8793 147.192 16.208H155.192ZM155.13 18.1724C156.413 17.7154 157.777 17.48 159.244 17.48V9.48C156.898 9.48 154.625 9.86055 152.447 10.6356L155.13 18.1724ZM159.244 17.48C159.721 17.48 160.043 17.5116 160.239 17.5456C160.446 17.5813 160.425 17.6041 160.278 17.5279C160.112 17.4421 159.765 17.2166 159.471 16.7606C159.165 16.286 159.072 15.8027 159.072 15.46H167.072C167.072 14.4573 166.82 13.3965 166.195 12.4269C165.582 11.4759 164.757 10.8379 163.953 10.4221C162.462 9.65105 160.735 9.48 159.244 9.48V17.48ZM159.072 15.46V21.004H167.072V15.46H159.072ZM159.072 21.004C159.072 23.9868 159.188 26.4453 159.475 28.236C159.611 29.0912 159.831 30.0942 160.258 30.9849C160.586 31.667 161.798 33.804 164.48 33.804V25.804C165.512 25.804 166.318 26.2399 166.814 26.6828C167.246 27.0684 167.429 27.4376 167.47 27.5231C167.546 27.6805 167.472 27.5834 167.374 26.972C167.191 25.8294 167.072 23.8878 167.072 21.004H159.072ZM164.48 33.804C165.834 33.804 167.369 33.2442 168.379 31.809C169.208 30.6307 169.316 29.3589 169.316 28.616H161.316C161.316 28.5923 161.317 28.4465 161.37 28.2223C161.423 27.997 161.545 27.618 161.836 27.205C162.145 26.7667 162.584 26.3751 163.134 26.1148C163.663 25.8641 164.147 25.804 164.48 25.804V33.804ZM169.316 28.616V16.208H161.316V28.616H169.316ZM169.316 16.208C169.316 17.1196 168.959 17.7941 168.676 18.1671C168.54 18.3462 168.415 18.4661 168.337 18.5345C168.257 18.6037 168.203 18.6397 168.191 18.6476C168.174 18.6585 168.245 18.6119 168.451 18.5233C168.65 18.4381 168.928 18.3343 169.299 18.2165L166.878 10.5915C165.828 10.9247 164.736 11.3511 163.828 11.9424C163.112 12.4083 161.316 13.7558 161.316 16.208H169.316ZM169.353 18.1987C170.76 17.7297 172.31 17.48 174.028 17.48V9.48C171.523 9.48 169.112 9.84633 166.823 10.6093L169.353 18.1987ZM174.028 17.48C174.387 17.48 174.602 17.5052 174.704 17.5236C174.815 17.5436 174.711 17.541 174.499 17.4262C174.266 17.2996 173.892 17.0295 173.592 16.5416C173.285 16.0436 173.196 15.5475 173.196 15.196H181.196C181.196 14.2725 180.975 13.2759 180.405 12.3489C179.841 11.432 179.071 10.8044 178.309 10.3918C176.906 9.63178 175.315 9.48 174.028 9.48V17.48ZM173.196 15.196V36.008H181.196V15.196H173.196ZM173.196 36.008C173.196 38.2791 172.492 39.4151 171.498 40.1492C170.277 41.0507 167.963 41.82 163.908 41.82V49.82C168.713 49.82 173.042 48.9539 176.25 46.5848C179.686 44.0482 181.196 40.2782 181.196 36.008H173.196ZM163.908 41.82C161.689 41.82 159.935 41.7107 158.603 41.5196C157.213 41.3202 156.544 41.0665 156.315 40.9421L152.493 47.9699C153.936 48.7548 155.687 49.1831 157.466 49.4384C159.302 49.7019 161.464 49.82 163.908 49.82V41.82ZM156.359 40.966C156.217 40.8866 156.376 40.9473 156.609 41.2172C156.874 41.5248 157.304 42.2005 157.304 43.18H149.304C149.304 46.0096 151.577 47.4571 152.45 47.946L156.359 40.966ZM157.304 43.18C157.304 43.3035 157.291 43.1941 157.408 42.7199C157.514 42.2905 157.691 41.7044 157.959 40.9403L150.41 38.2916C149.833 39.9346 149.304 41.7139 149.304 43.18H157.304ZM157.951 40.9613C158.069 40.6305 158.171 40.3827 158.252 40.2046C158.337 40.0193 158.38 39.9566 158.369 39.973C158.361 39.9845 158.326 40.0361 158.261 40.112C158.197 40.1863 158.081 40.3095 157.907 40.4467C157.564 40.717 156.844 41.152 155.812 41.152V33.152C153.34 33.152 152.033 35.0506 151.694 35.563C151.16 36.3718 150.75 37.3406 150.417 38.2707L157.951 40.9613ZM155.812 41.152C155.7 41.152 155.61 41.147 155.553 41.1429C155.493 41.1386 155.444 41.1335 155.412 41.1298C155.349 41.1225 155.307 41.1157 155.298 41.1141C155.279 41.111 155.298 41.1137 155.37 41.1292C155.511 41.1594 155.74 41.2129 156.074 41.2966L158.014 33.5354C157.645 33.4431 157.316 33.3646 157.046 33.3068C156.966 33.2895 156.382 33.152 155.812 33.152V41.152ZM156.001 41.2775C158.343 41.9106 160.527 42.296 162.456 42.296V34.296C161.511 34.296 160.087 34.0948 158.088 33.5545L156.001 41.2775ZM162.456 42.296C163.312 42.296 164.16 42.2507 164.939 42.1189C165.624 42.0029 166.709 41.751 167.682 41.0376L162.951 34.5864C163.253 34.365 163.498 34.2728 163.578 34.2452C163.666 34.2143 163.686 34.2171 163.604 34.2311C163.527 34.2441 163.394 34.2613 163.194 34.2746C162.996 34.2878 162.752 34.296 162.456 34.296V42.296ZM167.582 41.1082C169.528 39.7708 170.02 37.6911 170.02 36.14H162.02C162.02 36.16 162.015 35.9391 162.158 35.5998C162.318 35.2188 162.615 34.8152 163.05 34.5158L167.582 41.1082Z" fill="#202020" mask="url(#path-1-outside-1_25095_720)"/>
</g>
</svg>
